<?xml version="1.0" encoding="utf-8"?>
<!-- Generator: Adobe Illustrator 16.0.4, SVG Export Plug-In . SVG Version: 6.00 Build 0)  -->
<!DOCTYPE svg PUBLIC "-//W3C//DTD SVG 1.1//EN" "http://www.w3.org/Graphics/SVG/1.1/DTD/svg11.dtd">
<svg version="1.1" id="Ebene_1" xmlns="http://www.w3.org/2000/svg" xmlns:xlink="http://www.w3.org/1999/xlink" x="0px" y="0px"
	 width="530px" height="252.898px" viewBox="0 0 530 252.898" enable-background="new 0 0 530 252.898" xml:space="preserve">
<path fill="#CC9A21" stroke="#FFFFFF" stroke-width="4" d="M110.176,223.588c43.329,15.099,97.07,24.042,155.274,24.042
	c143.591,0,260.017-54.415,260.017-121.544c0-67.141-116.426-121.557-260.017-121.557C121.832,4.529,5.432,58.945,5.432,126.086
	c0,33.941,29.764,64.615,77.734,86.661L110.176,223.588z"/>
<g>
	<path fill="#FFFFFF" d="M318.766,123.543c13.317-37.18,62.695-48.484,63.565-94.561c-17.101,22.781-64.128,24.104-62.792,60.082
		L318.766,123.543z"/>
	<path fill="#FFFFFF" d="M343.282,107.6c27.996-1.758,50.219-20.852,47.19-49.941C383.143,80.328,371.104,99.627,343.282,107.6"/>
</g>
<g>
	<path fill="#FFFFFF" d="M209.502,51.498l-0.521,2.289c-0.672,0.023-1.525,0.127-2.565,0.312c-1.041,0.185-1.817,0.357-2.324,0.52
		c-0.901,0.301-1.55,0.774-1.942,1.422c-0.395,0.647-0.682,1.347-0.867,2.096l-8.34,35.815c-0.048,0.183-0.082,0.39-0.104,0.621
		c-0.024,0.231-0.034,0.417-0.034,0.556c0,0.484,0.104,0.919,0.312,1.299c0.208,0.383,0.556,0.725,1.041,1.023
		c0.322,0.209,1.011,0.416,2.062,0.625s1.878,0.324,2.481,0.347l-0.556,2.288h-21.691l0.555-2.288
		c0.832-0.046,1.873-0.132,3.122-0.26c1.248-0.126,2.127-0.317,2.635-0.573c0.81-0.438,1.462-0.947,1.961-1.525
		c0.495-0.578,0.825-1.283,0.987-2.116l8.537-36.658h-0.392l-26.823,42.625h-1.646l-6.175-43.492h-0.355l-6.987,30.243
		c-0.28,1.226-0.511,2.416-0.696,3.572c-0.187,1.156-0.279,2.092-0.279,2.809c0,0.764,0.082,1.418,0.243,1.961
		c0.162,0.543,0.394,0.988,0.694,1.334c0.416,0.486,1.294,0.926,2.636,1.318c1.341,0.393,2.393,0.646,3.156,0.763l-0.556,2.288
		h-19.911l0.554-2.288c1.087-0.116,2.174-0.278,3.26-0.485c1.088-0.208,2.093-0.602,3.018-1.18c0.926-0.624,1.711-1.641,2.358-3.052
		c0.648-1.41,1.308-3.63,1.979-6.659l5.907-25.525c0.116-0.533,0.204-1.012,0.261-1.44c0.059-0.427,0.088-0.85,0.088-1.266
		c0-0.739-0.093-1.357-0.276-1.856c-0.188-0.494-0.43-0.918-0.731-1.265c-0.601-0.671-1.417-1.146-2.444-1.421
		c-1.028-0.279-1.971-0.44-2.826-0.486l0.52-2.289h16.627l5.36,37.011l19.123-30.976c0.719-1.18,1.378-2.395,1.978-3.643
		c0.603-1.248,0.949-2.045,1.042-2.393H209.502z"/>
	<path fill="#FFFFFF" d="M236.351,72.908c0,2.455-0.77,4.562-2.306,6.324c-1.538,1.761-3.774,3.16-6.711,4.203
		c-2.15,0.787-4.324,1.424-6.521,1.911s-4.624,0.891-7.283,1.215c0,3.653,0.677,6.446,2.028,8.376
		c1.354,1.931,3.336,2.896,5.948,2.896c2.312,0,4.354-0.578,6.121-1.734c1.77-1.156,3.509-2.879,5.22-5.168l1.978,1.457
		c-1.85,2.82-4.162,5.074-6.937,6.763s-5.653,2.531-8.637,2.531c-4.093,0-7.22-1.146-9.381-3.437
		c-2.162-2.29-3.243-5.543-3.243-9.756c0-2.914,0.456-5.697,1.369-8.348c0.914-2.65,2.249-5.074,4.007-7.273
		c1.711-2.152,3.809-3.888,6.296-5.207c2.484-1.319,5.23-1.979,8.236-1.979c3.329,0,5.797,0.678,7.403,2.032
		C235.547,69.07,236.351,70.801,236.351,72.908z M229.97,72.057c0-0.9-0.127-1.609-0.382-2.129c-0.254-0.52-0.577-0.906-0.971-1.16
		c-0.417-0.275-0.855-0.448-1.318-0.519c-0.463-0.069-0.937-0.104-1.422-0.104c-2.774,0-5.336,1.523-7.683,4.569
		c-2.348,3.045-3.831,6.84-4.457,11.384c1.62-0.229,3.446-0.56,5.48-0.985c2.035-0.426,3.723-0.986,5.063-1.678
		c1.92-0.992,3.347-2.268,4.284-3.824C229.501,76.053,229.97,74.201,229.97,72.057z"/>
	<path fill="#FFFFFF" d="M257.7,96.932l-0.52,2.22c-2.128,0.855-3.827,1.451-5.099,1.785c-1.271,0.335-2.358,0.505-3.26,0.505
		c-1.85,0-3.237-0.481-4.163-1.441c-0.924-0.961-1.387-2.146-1.387-3.559c0-0.531,0.047-1.088,0.139-1.666
		c0.093-0.58,0.242-1.309,0.452-2.189l3.664-14.756c0.183-0.809,0.363-1.678,0.537-2.603c0.173-0.927,0.259-1.714,0.259-2.362
		c0-1.296-0.213-2.158-0.641-2.586s-1.299-0.643-2.614-0.643c-0.507,0-1.183,0.081-2.025,0.243c-0.842,0.161-1.483,0.3-1.92,0.416
		l0.52-2.22c1.802-0.809,3.42-1.411,4.852-1.803c1.435-0.395,2.567-0.591,3.399-0.591c1.895,0,3.27,0.451,4.126,1.354
		c0.855,0.903,1.281,2.117,1.281,3.645c0,0.418-0.046,0.984-0.139,1.703c-0.092,0.717-0.231,1.434-0.416,2.152l-3.685,14.755
		c-0.229,0.903-0.431,1.789-0.604,2.657c-0.173,0.869-0.259,1.578-0.259,2.135c0,1.32,0.294,2.223,0.882,2.709
		s1.537,0.729,2.852,0.729c0.438,0,1.066-0.059,1.884-0.174C256.636,97.232,257.263,97.094,257.7,96.932z M260.163,52.572
		c0,1.318-0.429,2.47-1.284,3.452c-0.855,0.983-1.918,1.474-3.19,1.474c-1.179,0-2.196-0.469-3.052-1.404
		c-0.855-0.938-1.283-2.006-1.283-3.209c0-1.271,0.428-2.381,1.283-3.329s1.873-1.423,3.052-1.423c1.318,0,2.394,0.447,3.227,1.336
		C259.747,50.359,260.163,51.395,260.163,52.572z"/>
	<path fill="#FFFFFF" d="M299.279,96.689l-0.523,2.219c-2.088,0.832-3.712,1.439-4.873,1.82c-1.158,0.383-2.332,0.573-3.515,0.573
		c-1.856,0-3.248-0.481-4.177-1.44c-0.927-0.961-1.393-2.146-1.393-3.559c0-0.511,0.047-1.07,0.139-1.685
		c0.093-0.613,0.243-1.337,0.454-2.17l3.426-12.95c0.257-0.996,0.46-1.898,0.612-2.709c0.149-0.811,0.226-1.457,0.226-1.945
		c0-1.549-0.369-2.776-1.103-3.679c-0.738-0.903-1.826-1.354-3.271-1.354c-1.399,0-2.973,0.463-4.715,1.391
		c-1.743,0.926-3.383,2.269-4.919,4.029l-5.926,25.48h-6.479l5.201-22.498c0.114-0.557,0.282-1.36,0.502-2.414
		c0.22-1.052,0.329-1.902,0.329-2.552c0-1.296-0.22-2.163-0.66-2.603c-0.439-0.441-1.323-0.661-2.646-0.661
		c-0.511,0-1.164,0.087-1.952,0.261c-0.79,0.172-1.407,0.317-1.849,0.434l0.523-2.22c1.812-0.81,3.416-1.411,4.811-1.804
		c1.395-0.394,2.592-0.59,3.593-0.59c1.836,0,3.148,0.499,3.939,1.494c0.788,0.993,1.208,2.37,1.253,4.129h0.209
		c2.533-2.036,4.722-3.545,6.566-4.529c1.84-0.982,3.938-1.476,6.287-1.476c2.212,0,3.94,0.644,5.183,1.928
		c1.245,1.285,1.867,2.968,1.867,5.052c0,0.416-0.064,1.156-0.191,2.221c-0.128,1.065-0.33,2.119-0.606,3.16l-2.916,11.145
		c-0.209,0.742-0.411,1.592-0.607,2.554c-0.199,0.962-0.296,1.706-0.296,2.239c0,1.32,0.289,2.217,0.867,2.69
		c0.576,0.476,1.526,0.712,2.846,0.712c0.439,0,1.069-0.074,1.892-0.225C298.207,97.008,298.838,96.851,299.279,96.689z"/>
</g>
<g>
	<path fill="#FFFFFF" d="M136.143,122.838l-3.969,17.168h-3.077c-0.029-1.041-0.171-2.364-0.423-3.969
		c-0.251-1.605-0.614-3.047-1.088-4.326c-0.504-1.367-1.163-2.541-1.978-3.521c-0.815-0.981-1.785-1.562-2.911-1.74
		c-0.889-0.117-2.021-0.207-3.399-0.268c-1.378-0.059-2.66-0.089-3.845-0.089h-2.799l-11.804,51.063
		c-0.061,0.234-0.105,0.493-0.136,0.775c-0.029,0.282-0.045,0.555-0.045,0.824c0,0.714,0.134,1.302,0.402,1.764
		c0.267,0.459,0.773,0.867,1.518,1.223c0.595,0.238,1.671,0.529,3.231,0.869c1.561,0.344,2.833,0.529,3.814,0.559l-0.714,2.942
		H79.021l0.714-2.942c0.892-0.059,2.185-0.179,3.879-0.355c1.694-0.18,2.928-0.402,3.701-0.67c1.188-0.445,2.081-1.056,2.676-1.828
		c0.594-0.773,1.011-1.694,1.248-2.765l11.895-51.459h-2.367c-0.893,0-2.009,0.023-3.348,0.066c-1.341,0.046-2.71,0.142-4.11,0.29
		c-0.98,0.119-2.126,0.707-3.438,1.762c-1.311,1.057-2.62,2.296-3.93,3.724c-1.25,1.397-2.382,2.817-3.394,4.259
		c-1.013,1.442-1.801,2.713-2.367,3.812h-3.121l3.969-17.168H136.143z"/>
	<path fill="#FFFFFF" d="M160.557,150.365c0,3.156-0.988,5.867-2.966,8.131c-1.977,2.264-4.853,4.064-8.628,5.403
		c-2.764,1.013-5.559,1.832-8.383,2.458c-2.824,0.625-5.945,1.146-9.364,1.562c0,4.697,0.868,8.287,2.609,10.768
		c1.737,2.484,4.287,3.725,7.646,3.725c2.974,0,5.596-0.744,7.871-2.229c2.272-1.485,4.511-3.702,6.711-6.644l2.541,1.871
		c-2.378,3.628-5.351,6.527-8.918,8.695c-3.567,2.172-7.268,3.256-11.103,3.256c-5.263,0-9.284-1.473-12.062-4.42
		c-2.781-2.943-4.171-7.124-4.171-12.542c0-3.748,0.587-7.327,1.763-10.734c1.172-3.405,2.89-6.522,5.149-9.351
		c2.2-2.766,4.896-4.998,8.092-6.693c3.196-1.696,6.728-2.545,10.592-2.545c4.281,0,7.454,0.869,9.521,2.613
		C159.523,145.432,160.557,147.656,160.557,150.365z M152.353,149.27c0-1.156-0.164-2.068-0.49-2.734
		c-0.327-0.669-0.743-1.165-1.249-1.492c-0.535-0.355-1.101-0.578-1.695-0.667c-0.594-0.09-1.203-0.134-1.827-0.134
		c-3.567,0-6.861,1.957-9.877,5.872c-3.019,3.916-4.928,8.797-5.73,14.641c2.081-0.298,4.43-0.72,7.045-1.27
		c2.616-0.549,4.786-1.267,6.51-2.157c2.469-1.273,4.305-2.914,5.508-4.918C151.751,154.409,152.353,152.027,152.353,149.27z"/>
	<path fill="#FFFFFF" d="M203.542,150.365c0,3.156-0.989,5.867-2.966,8.131c-1.978,2.264-4.854,4.064-8.628,5.403
		c-2.766,1.013-5.56,1.832-8.384,2.458c-2.823,0.625-5.945,1.146-9.364,1.562c0,4.697,0.868,8.287,2.609,10.768
		c1.737,2.484,4.287,3.725,7.646,3.725c2.973,0,5.596-0.744,7.872-2.229c2.271-1.485,4.51-3.702,6.709-6.644l2.542,1.871
		c-2.378,3.628-5.351,6.527-8.918,8.695c-3.567,2.172-7.268,3.256-11.103,3.256c-5.263,0-9.284-1.473-12.062-4.42
		c-2.781-2.943-4.17-7.124-4.17-12.542c0-3.748,0.586-7.327,1.762-10.734c1.173-3.405,2.89-6.522,5.149-9.351
		c2.2-2.766,4.896-4.998,8.093-6.693c3.195-1.696,6.727-2.545,10.591-2.545c4.28,0,7.453,0.869,9.521,2.613
		C202.508,145.432,203.542,147.656,203.542,150.365z M195.337,149.27c0-1.156-0.163-2.068-0.491-2.734
		c-0.327-0.669-0.743-1.165-1.248-1.492c-0.534-0.355-1.101-0.578-1.694-0.667c-0.595-0.09-1.204-0.134-1.828-0.134
		c-3.567,0-6.86,1.957-9.876,5.872c-3.02,3.916-4.929,8.797-5.731,14.641c2.081-0.298,4.43-0.72,7.046-1.27
		c2.615-0.549,4.786-1.267,6.51-2.157c2.468-1.273,4.305-2.914,5.506-4.918C194.735,154.409,195.337,152.027,195.337,149.27z"/>
	<path fill="#FFFFFF" d="M252.443,146.204c0,1.309-0.514,2.519-1.54,3.634c-1.027,1.114-2.3,1.672-3.818,1.672
		c-0.982,0-1.949-0.133-2.902-0.4s-1.995-0.668-3.127-1.205c-1.633,0.922-3.319,2.061-5.056,3.412
		c-1.738,1.354-3.631,2.99-5.68,4.912c1.695,4.402,3.131,8.01,4.305,10.82c1.176,2.813,2.181,5.11,3.013,6.895
		c1.072,2.232,2.253,3.814,3.547,4.753c1.292,0.935,2.713,1.403,4.258,1.403c0.714,0,1.695-0.107,2.943-0.32
		c1.249-0.213,2.215-0.433,2.898-0.66l-0.669,2.92c-2.77,1.121-4.943,1.875-6.521,2.258c-1.576,0.381-3.169,0.574-4.776,0.574
		c-1.905,0-3.533-0.529-4.89-1.584c-1.354-1.053-2.653-2.965-3.899-5.729c-1.215-2.644-2.299-5.254-3.249-7.825
		c-0.947-2.569-1.882-5-2.801-7.289l-5.146,4.352l-3.863,17.317h-8.331l13.274-57.429c0.208-0.92,0.349-1.561,0.423-1.917
		c0.075-0.356,0.113-0.802,0.113-1.339c0-1.07-0.179-1.896-0.538-2.478c-0.357-0.579-0.864-1.018-1.521-1.316
		c-0.627-0.268-1.418-0.446-2.375-0.534c-0.955-0.09-1.925-0.195-2.911-0.313l0.626-2.72l16.593-0.98l0.448,0.668l-10.914,46.42
		h0.179c3.355-3.627,6.409-6.77,9.157-9.431c2.747-2.659,5.622-5.373,8.623-8.138c2.139-1.962,3.833-3.307,5.079-4.037
		c1.25-0.726,2.586-1.092,4.013-1.092c1.515,0,2.733,0.425,3.653,1.27C251.983,143.597,252.443,144.747,252.443,146.204z"/>
	<path fill="#FFFFFF" d="M298.497,158.617c0,3.51-0.595,7.021-1.783,10.533c-1.189,3.512-2.914,6.591-5.173,9.24
		c-2.29,2.737-5.048,4.932-8.272,6.584c-3.226,1.65-6.964,2.477-11.215,2.477c-4.935,0-8.941-1.593-12.017-4.777
		c-3.078-3.184-4.616-7.469-4.616-12.852c0-3.959,0.655-7.648,1.963-11.072c1.308-3.42,3.062-6.426,5.262-9.016
		c2.229-2.588,4.984-4.679,8.271-6.271c3.283-1.592,6.846-2.388,10.681-2.388c5.29,0,9.429,1.613,12.419,4.841
		C297.003,149.146,298.497,153.379,298.497,158.617z M289.401,156.918c0-4.224-0.753-7.393-2.252-9.508
		c-1.503-2.111-3.666-3.168-6.489-3.168c-2.467,0-4.793,0.76-6.978,2.277c-2.186,1.518-4.066,3.986-5.642,7.408
		c-1.22,2.59-2.11,5.471-2.675,8.641c-0.565,3.168-0.848,6.092-0.848,8.77c0,4.257,0.734,7.479,2.208,9.664
		c1.471,2.189,3.692,3.283,6.665,3.283c2.646,0,4.994-0.834,7.046-2.5c2.051-1.666,3.716-3.779,4.995-6.34
		c1.277-2.499,2.258-5.363,2.942-8.592C289.058,163.624,289.401,160.314,289.401,156.918z"/>
	<path fill="#FFFFFF" d="M351.167,180.94l-0.67,2.854c-2.685,1.07-4.774,1.85-6.266,2.342c-1.49,0.488-3.001,0.734-4.519,0.734
		c-2.389,0-4.178-0.617-5.371-1.853c-1.192-1.233-1.788-2.759-1.788-4.575c0-0.655,0.059-1.376,0.178-2.166
		c0.118-0.789,0.312-1.719,0.584-2.79l4.404-16.651c0.33-1.277,0.59-2.438,0.784-3.48c0.193-1.041,0.289-1.875,0.289-2.501
		c0-1.993-0.473-3.57-1.417-4.731c-0.944-1.162-2.347-1.74-4.205-1.74c-1.798,0-3.817,0.596-6.06,1.787
		c-2.241,1.191-4.351,2.918-6.325,5.18l-7.618,32.763h-8.33l6.686-28.927c0.15-0.713,0.363-1.749,0.648-3.103
		c0.281-1.353,0.424-2.446,0.424-3.28c0-1.668-0.284-2.784-0.851-3.349c-0.564-0.566-1.701-0.849-3.402-0.849
		c-0.657,0-1.494,0.111-2.511,0.332c-1.019,0.225-1.81,0.41-2.378,0.56l0.673-2.854c2.332-1.041,4.394-1.813,6.187-2.319
		s3.332-0.758,4.618-0.758c2.359,0,4.047,0.641,5.063,1.919c1.017,1.279,1.556,3.05,1.614,5.312h0.268
		c3.257-2.617,6.072-4.561,8.44-5.823c2.37-1.267,5.064-1.897,8.085-1.897c2.844,0,5.064,0.825,6.665,2.476
		c1.601,1.653,2.4,3.819,2.4,6.497c0,0.534-0.084,1.487-0.246,2.857c-0.165,1.368-0.424,2.723-0.779,4.062l-3.752,14.328
		c-0.266,0.953-0.528,2.047-0.781,3.282s-0.38,2.194-0.38,2.878c0,1.697,0.371,2.852,1.115,3.46c0.746,0.612,1.964,0.916,3.66,0.916
		c0.564,0,1.375-0.097,2.431-0.29C349.792,181.351,350.603,181.148,351.167,180.94z"/>
	<path fill="#FFFFFF" d="M366.396,187.051c-2.824,0-4.89-0.573-6.197-1.717c-1.309-1.146-1.963-2.788-1.963-4.929
		c0-0.685,0.043-1.33,0.133-1.938c0.09-0.609,0.209-1.302,0.357-2.074l6.952-29.787h-7.977l0.939-4.059h8.14l3.109-13.064h8.02
		l-3.015,13.064h12.416l-0.934,4.059h-12.312l-5.757,24.57c-0.268,1.129-0.488,2.222-0.668,3.279
		c-0.178,1.054-0.268,1.951-0.268,2.695c0,1.635,0.41,2.832,1.228,3.589c0.816,0.759,2.296,1.138,4.438,1.138
		c0.771,0,1.857-0.096,3.256-0.289c1.397-0.193,2.482-0.439,3.255-0.737l-0.758,3.255c-2.081,0.804-4.043,1.495-5.887,2.074
		C371.062,186.76,368.894,187.051,366.396,187.051z"/>
	<path fill="#FFFFFF" d="M428.553,158.617c0,3.51-0.596,7.021-1.783,10.533c-1.19,3.512-2.914,6.591-5.173,9.24
		c-2.289,2.737-5.048,4.932-8.273,6.584c-3.226,1.65-6.963,2.477-11.214,2.477c-4.935,0-8.94-1.593-12.017-4.777
		c-3.078-3.184-4.616-7.469-4.616-12.852c0-3.959,0.655-7.648,1.962-11.072c1.31-3.42,3.062-6.426,5.263-9.016
		c2.229-2.588,4.985-4.679,8.271-6.271c3.284-1.592,6.844-2.388,10.681-2.388c5.291,0,9.429,1.613,12.419,4.841
		C427.059,149.146,428.553,153.379,428.553,158.617z M419.455,156.918c0-4.224-0.751-7.393-2.25-9.508
		c-1.503-2.111-3.666-3.168-6.489-3.168c-2.467,0-4.795,0.76-6.979,2.277c-2.186,1.518-4.065,3.986-5.641,7.408
		c-1.218,2.59-2.11,5.471-2.677,8.641c-0.564,3.168-0.846,6.092-0.846,8.77c0,4.257,0.733,7.479,2.207,9.664
		c1.47,2.189,3.692,3.283,6.666,3.283c2.646,0,4.995-0.834,7.045-2.5c2.052-1.666,3.717-3.779,4.995-6.34
		c1.279-2.499,2.259-5.363,2.943-8.592C419.114,163.624,419.455,160.314,419.455,156.918z"/>
	<path fill="#FFFFFF" d="M472.527,148.344c0,0.833-0.118,1.747-0.355,2.744c-0.238,0.996-0.58,1.818-1.026,2.474
		c-0.535,0.804-1.123,1.42-1.762,1.851c-0.64,0.432-1.554,0.646-2.742,0.646c-1.604,0-2.809-0.401-3.611-1.203
		c-0.802-0.804-1.204-1.696-1.204-2.677c0-0.921,0.223-1.953,0.668-3.101c0.446-1.142,0.907-2.279,1.383-3.41
		c-0.356,0-0.943,0.098-1.76,0.293c-0.817,0.19-1.803,0.572-2.96,1.137c-1.156,0.565-2.467,1.416-3.935,2.546
		c-1.468,1.132-3.034,2.634-4.692,4.511l-7.186,31.958h-8.317l6.503-28.927c0.148-0.713,0.363-1.785,0.646-3.215
		c0.283-1.428,0.423-2.485,0.423-3.168c0-1.668-0.281-2.784-0.847-3.349c-0.564-0.566-1.692-0.849-3.385-0.849
		c-0.655,0-1.486,0.111-2.496,0.332c-1.01,0.225-1.797,0.41-2.362,0.56l0.67-2.854c2.317-1.041,4.369-1.813,6.152-2.319
		s3.314-0.758,4.592-0.758c2.378,0,4.072,0.646,5.083,1.941c1.01,1.296,1.518,3.236,1.518,5.825h0.267
		c3.537-3.065,6.222-5.207,8.049-6.427c1.828-1.22,3.738-1.83,5.731-1.83c0.95,0,1.874,0.119,2.764,0.356
		c0.893,0.237,1.651,0.638,2.275,1.204c0.653,0.624,1.138,1.346,1.448,2.161C472.373,145.618,472.527,146.799,472.527,148.344z"/>
</g>
</svg>
